<?xml version="1.0" encoding="UTF-8" standalone="no"?>
<svg width="236.361mm" height="92.7806mm"
 viewBox="0 0 670 263"
 xmlns="http://www.w3.org/2000/svg" xmlns:xlink="http://www.w3.org/1999/xlink" version="1.1">
<title>Qt SVG Document</title>
<desc>MATLAB, The MathWorks, Inc. Version 26.1.0.3312084 R2026a Update 4</desc>
<defs>
</defs>
<g fill="none" stroke="black" stroke-width="1" fill-rule="evenodd" stroke-linecap="square" stroke-linejoin="bevel" >

<g fill="#ffffff" fill-opacity="1" stroke="none" transform="matrix(3.75e-05,0,0,3.75e-05,-60.45,-2.8125)"
font-family="Segoe UI" font-size="9" font-weight="400" font-style="normal" 
>
<path vector-effect="none" fill-rule="evenodd" d="M2.76e+06,500000 L2.76e+06,5.98e+06 L7.3e+06,5.98e+06 L7.3e+06,500000 L2.76e+06,500000"/>
</g>

<g fill="#212121" fill-opacity="1" stroke="#212121" stroke-opacity="1" stroke-width="1" stroke-linecap="square" stroke-linejoin="bevel" transform="matrix(0.375,0,0,0.375,84.1127,11.625)"
font-family="Helvetica" font-size="37" font-weight="400" font-style="normal" 
>
<text fill="#212121" fill-opacity="1" stroke="none" xml:space="preserve" x="0" y="0" font-family="Helvetica" font-size="37" font-weight="400" font-style="normal" 
 >No Adaptation</text>
</g>

<g fill="#808080" fill-opacity="0.6" stroke="none" transform="matrix(3.75e-05,0,0,3.75e-05,-60.45,-2.8125)"
font-family="Helvetica" font-size="37" font-weight="400" font-style="normal" 
>
<path vector-effect="none" fill-rule="evenodd" d="M2.96636e+06,2.1237e+06 L2.96636e+06,5.98e+06 L3.12511e+06,5.98e+06 L3.12511e+06,2.1237e+06 L2.96636e+06,2.1237e+06"/>
</g>

<g fill="#808080" fill-opacity="0.6" stroke="none" transform="matrix(3.75e-05,0,0,3.75e-05,-60.45,-2.8125)"
font-family="Helvetica" font-size="37" font-weight="400" font-style="normal" 
>
<path vector-effect="none" fill-rule="evenodd" d="M3.91881e+06,5.77704e+06 L3.91881e+06,5.98e+06 L4.07755e+06,5.98e+06 L4.07755e+06,5.77704e+06 L3.91881e+06,5.77704e+06"/>
</g>

<g fill="#808080" fill-opacity="0.6" stroke="none" transform="matrix(3.75e-05,0,0,3.75e-05,-60.45,-2.8125)"
font-family="Helvetica" font-size="37" font-weight="400" font-style="normal" 
>
<path vector-effect="none" fill-rule="evenodd" d="M4.55378e+06,5.77704e+06 L4.55378e+06,5.98e+06 L4.71252e+06,5.98e+06 L4.71252e+06,5.77704e+06 L4.55378e+06,5.77704e+06"/>
</g>

<g fill="#808080" fill-opacity="0.6" stroke="none" transform="matrix(3.75e-05,0,0,3.75e-05,-60.45,-2.8125)"
font-family="Helvetica" font-size="37" font-weight="400" font-style="normal" 
>
<path vector-effect="none" fill-rule="evenodd" d="M5.03e+06,5.77704e+06 L5.03e+06,5.98e+06 L5.18874e+06,5.98e+06 L5.34748e+06,5.98e+06 L5.34748e+06,5.77704e+06 L5.18874e+06,5.77704e+06 L5.03e+06,5.77704e+06"/>
</g>

<g fill="#808080" fill-opacity="0.6" stroke="none" transform="matrix(3.75e-05,0,0,3.75e-05,-60.45,-2.8125)"
font-family="Helvetica" font-size="37" font-weight="400" font-style="normal" 
>
<path vector-effect="none" fill-rule="evenodd" d="M6.14119e+06,5.77704e+06 L6.14119e+06,5.98e+06 L6.29993e+06,5.98e+06 L6.29993e+06,5.77704e+06 L6.14119e+06,5.77704e+06"/>
</g>

<g fill="#808080" fill-opacity="0.6" stroke="none" transform="matrix(3.75e-05,0,0,3.75e-05,-60.45,-2.8125)"
font-family="Helvetica" font-size="37" font-weight="400" font-style="normal" 
>
<path vector-effect="none" fill-rule="evenodd" d="M6.77615e+06,5.77704e+06 L6.77615e+06,5.98e+06 L6.9349e+06,5.98e+06 L6.9349e+06,5.77704e+06 L6.77615e+06,5.77704e+06"/>
</g>

<g fill="#808080" fill-opacity="0.6" stroke="none" transform="matrix(3.75e-05,0,0,3.75e-05,-60.45,-2.8125)"
font-family="Helvetica" font-size="37" font-weight="400" font-style="normal" 
>
<path vector-effect="none" fill-rule="evenodd" d="M6.9349e+06,5.57407e+06 L6.9349e+06,5.98e+06 L7.09364e+06,5.98e+06 L7.09364e+06,5.57407e+06 L6.9349e+06,5.57407e+06"/>
</g>

<g fill="#212121" fill-opacity="1" stroke="#212121" stroke-opacity="1" stroke-width="1" stroke-linecap="square" stroke-linejoin="bevel" transform="matrix(0.375,0,0,0.375,116.175,254.813)"
font-family="Helvetica" font-size="35" font-weight="400" font-style="normal" 
>
<text fill="#212121" fill-opacity="1" stroke="none" xml:space="preserve" x="0" y="0" font-family="Helvetica" font-size="35" font-weight="400" font-style="normal" 
 >D</text>
</g>

<g fill="#212121" fill-opacity="1" stroke="#212121" stroke-opacity="1" stroke-width="1" stroke-linecap="square" stroke-linejoin="bevel" transform="matrix(0.375,0,0,0.375,125.55,261.188)"
font-family="Helvetica" font-size="28" font-weight="400" font-style="normal" 
>
<text fill="#212121" fill-opacity="1" stroke="none" xml:space="preserve" x="0" y="0" font-family="Helvetica" font-size="28" font-weight="400" font-style="normal" 
 >KY</text>
</g>

<g fill="#212121" fill-opacity="1" stroke="#212121" stroke-opacity="1" stroke-width="1.33333" stroke-linecap="square" stroke-linejoin="round" transform="matrix(0.375,0,0,0.375,-60.45,-2.8125)"
font-family="Helvetica" font-size="28" font-weight="400" font-style="normal" 
>
<polyline fill="none" vector-effect="none" points="276,598 730,598 " />
<polyline fill="none" vector-effect="none" points="296.636,598 296.636,592.52 " />
<polyline fill="none" vector-effect="none" points="428.921,598 428.921,592.52 " />
<polyline fill="none" vector-effect="none" points="561.205,598 561.205,592.52 " />
<polyline fill="none" vector-effect="none" points="693.49,598 693.49,592.52 " />
</g>

<g fill="#212121" fill-opacity="1" stroke="#212121" stroke-opacity="1" stroke-width="1" stroke-linecap="square" stroke-linejoin="bevel" transform="matrix(0.375,0,0,0.375,46.8511,238.987)"
font-family="Helvetica" font-size="37" font-weight="400" font-style="normal" 
>
<text fill="#212121" fill-opacity="1" stroke="none" xml:space="preserve" x="0" y="0" font-family="Helvetica" font-size="37" font-weight="400" font-style="normal" 
 >0</text>
</g>

<g fill="#212121" fill-opacity="1" stroke="#212121" stroke-opacity="1" stroke-width="1" stroke-linecap="square" stroke-linejoin="bevel" transform="matrix(0.375,0,0,0.375,92.5203,238.987)"
font-family="Helvetica" font-size="37" font-weight="400" font-style="normal" 
>
<text fill="#212121" fill-opacity="1" stroke="none" xml:space="preserve" x="0" y="0" font-family="Helvetica" font-size="37" font-weight="400" font-style="normal" 
 >10</text>
</g>

<g fill="#212121" fill-opacity="1" stroke="#212121" stroke-opacity="1" stroke-width="1" stroke-linecap="square" stroke-linejoin="bevel" transform="matrix(0.375,0,0,0.375,142.127,238.987)"
font-family="Helvetica" font-size="37" font-weight="400" font-style="normal" 
>
<text fill="#212121" fill-opacity="1" stroke="none" xml:space="preserve" x="0" y="0" font-family="Helvetica" font-size="37" font-weight="400" font-style="normal" 
 >20</text>
</g>

<g fill="#212121" fill-opacity="1" stroke="#212121" stroke-opacity="1" stroke-width="1" stroke-linecap="square" stroke-linejoin="bevel" transform="matrix(0.375,0,0,0.375,191.734,238.987)"
font-family="Helvetica" font-size="37" font-weight="400" font-style="normal" 
>
<text fill="#212121" fill-opacity="1" stroke="none" xml:space="preserve" x="0" y="0" font-family="Helvetica" font-size="37" font-weight="400" font-style="normal" 
 >30</text>
</g>

<g fill="#212121" fill-opacity="1" stroke="#212121" stroke-opacity="1" stroke-width="1" stroke-linecap="square" stroke-linejoin="bevel" transform="matrix(0,-0.375,0.375,0,12.375,154.687)"
font-family="Helvetica" font-size="41" font-weight="400" font-style="normal" 
>
<text fill="#212121" fill-opacity="1" stroke="none" xml:space="preserve" x="0" y="0" font-family="Helvetica" font-size="41" font-weight="400" font-style="normal" 
 >Probability</text>
</g>

<g fill="#212121" fill-opacity="1" stroke="#212121" stroke-opacity="1" stroke-width="1.33333" stroke-linecap="square" stroke-linejoin="round" transform="matrix(0.375,0,0,0.375,-60.45,-2.8125)"
font-family="Helvetica" font-size="41" font-weight="400" font-style="normal" 
>
<polyline fill="none" vector-effect="none" points="276,598 276,50 " />
<polyline fill="none" vector-effect="none" points="276,598 281.48,598 " />
<polyline fill="none" vector-effect="none" points="276,488.4 281.48,488.4 " />
<polyline fill="none" vector-effect="none" points="276,378.8 281.48,378.8 " />
<polyline fill="none" vector-effect="none" points="276,269.2 281.48,269.2 " />
<polyline fill="none" vector-effect="none" points="276,159.6 281.48,159.6 " />
<polyline fill="none" vector-effect="none" points="276,50 281.48,50 " />
</g>

<g fill="#212121" fill-opacity="1" stroke="#212121" stroke-opacity="1" stroke-width="1" stroke-linecap="square" stroke-linejoin="bevel" transform="matrix(0.375,0,0,0.375,30.375,226.313)"
font-family="Helvetica" font-size="37" font-weight="400" font-style="normal" 
>
<text fill="#212121" fill-opacity="1" stroke="none" xml:space="preserve" x="0" y="0" font-family="Helvetica" font-size="37" font-weight="400" font-style="normal" 
 >0</text>
</g>

<g fill="#212121" fill-opacity="1" stroke="#212121" stroke-opacity="1" stroke-width="1" stroke-linecap="square" stroke-linejoin="bevel" transform="matrix(0.375,0,0,0.375,18.75,185.213)"
font-family="Helvetica" font-size="37" font-weight="400" font-style="normal" 
>
<text fill="#212121" fill-opacity="1" stroke="none" xml:space="preserve" x="0" y="0" font-family="Helvetica" font-size="37" font-weight="400" font-style="normal" 
 >0.2</text>
</g>

<g fill="#212121" fill-opacity="1" stroke="#212121" stroke-opacity="1" stroke-width="1" stroke-linecap="square" stroke-linejoin="bevel" transform="matrix(0.375,0,0,0.375,18.75,144.112)"
font-family="Helvetica" font-size="37" font-weight="400" font-style="normal" 
>
<text fill="#212121" fill-opacity="1" stroke="none" xml:space="preserve" x="0" y="0" font-family="Helvetica" font-size="37" font-weight="400" font-style="normal" 
 >0.4</text>
</g>

<g fill="#212121" fill-opacity="1" stroke="#212121" stroke-opacity="1" stroke-width="1" stroke-linecap="square" stroke-linejoin="bevel" transform="matrix(0.375,0,0,0.375,18.75,103.012)"
font-family="Helvetica" font-size="37" font-weight="400" font-style="normal" 
>
<text fill="#212121" fill-opacity="1" stroke="none" xml:space="preserve" x="0" y="0" font-family="Helvetica" font-size="37" font-weight="400" font-style="normal" 
 >0.6</text>
</g>

<g fill="#212121" fill-opacity="1" stroke="#212121" stroke-opacity="1" stroke-width="1" stroke-linecap="square" stroke-linejoin="bevel" transform="matrix(0.375,0,0,0.375,18.75,61.9125)"
font-family="Helvetica" font-size="37" font-weight="400" font-style="normal" 
>
<text fill="#212121" fill-opacity="1" stroke="none" xml:space="preserve" x="0" y="0" font-family="Helvetica" font-size="37" font-weight="400" font-style="normal" 
 >0.8</text>
</g>

<g fill="#212121" fill-opacity="1" stroke="#212121" stroke-opacity="1" stroke-width="1" stroke-linecap="square" stroke-linejoin="bevel" transform="matrix(0.375,0,0,0.375,30.375,20.8125)"
font-family="Helvetica" font-size="37" font-weight="400" font-style="normal" 
>
<text fill="#212121" fill-opacity="1" stroke="none" xml:space="preserve" x="0" y="0" font-family="Helvetica" font-size="37" font-weight="400" font-style="normal" 
 >1</text>
</g>

<g fill="#ffffff" fill-opacity="1" stroke="none" transform="matrix(3.75e-05,0,0,3.75e-05,-60.45,-2.8125)"
font-family="Helvetica" font-size="37" font-weight="400" font-style="normal" 
>
<path vector-effect="none" fill-rule="evenodd" d="M8.73e+06,500000 L8.73e+06,5.98e+06 L1.327e+07,5.98e+06 L1.327e+07,500000 L8.73e+06,500000"/>
</g>

<g fill="#212121" fill-opacity="1" stroke="#212121" stroke-opacity="1" stroke-width="1" stroke-linecap="square" stroke-linejoin="bevel" transform="matrix(0.375,0,0,0.375,263.363,11.625)"
font-family="Helvetica" font-size="37" font-weight="400" font-style="normal" 
>
<text fill="#212121" fill-opacity="1" stroke="none" xml:space="preserve" x="0" y="0" font-family="Helvetica" font-size="37" font-weight="400" font-style="normal" 
 >Single-Timescale Adaptation</text>
</g>

<g fill="#808080" fill-opacity="0.6" stroke="none" transform="matrix(3.75e-05,0,0,3.75e-05,-60.45,-2.8125)"
font-family="Helvetica" font-size="37" font-weight="400" font-style="normal" 
>
<path vector-effect="none" fill-rule="evenodd" d="M8.93636e+06,774000 L8.93636e+06,5.98e+06 L9.09511e+06,5.98e+06 L9.09511e+06,774000 L8.93636e+06,774000"/>
</g>

<g fill="#808080" fill-opacity="0.6" stroke="none" transform="matrix(3.75e-05,0,0,3.75e-05,-60.45,-2.8125)"
font-family="Helvetica" font-size="37" font-weight="400" font-style="normal" 
>
<path vector-effect="none" fill-rule="evenodd" d="M1.29049e+07,5.706e+06 L1.29049e+07,5.98e+06 L1.30636e+07,5.98e+06 L1.30636e+07,5.706e+06 L1.29049e+07,5.706e+06"/>
</g>

<g fill="#212121" fill-opacity="1" stroke="#212121" stroke-opacity="1" stroke-width="1" stroke-linecap="square" stroke-linejoin="bevel" transform="matrix(0.375,0,0,0.375,340.05,254.813)"
font-family="Helvetica" font-size="35" font-weight="400" font-style="normal" 
>
<text fill="#212121" fill-opacity="1" stroke="none" xml:space="preserve" x="0" y="0" font-family="Helvetica" font-size="35" font-weight="400" font-style="normal" 
 >D</text>
</g>

<g fill="#212121" fill-opacity="1" stroke="#212121" stroke-opacity="1" stroke-width="1" stroke-linecap="square" stroke-linejoin="bevel" transform="matrix(0.375,0,0,0.375,349.425,261.188)"
font-family="Helvetica" font-size="28" font-weight="400" font-style="normal" 
>
<text fill="#212121" fill-opacity="1" stroke="none" xml:space="preserve" x="0" y="0" font-family="Helvetica" font-size="28" font-weight="400" font-style="normal" 
 >KY</text>
</g>

<g fill="#212121" fill-opacity="1" stroke="#212121" stroke-opacity="1" stroke-width="1.33333" stroke-linecap="square" stroke-linejoin="round" transform="matrix(0.375,0,0,0.375,-60.45,-2.8125)"
font-family="Helvetica" font-size="28" font-weight="400" font-style="normal" 
>
<polyline fill="none" vector-effect="none" points="873,598 1327,598 " />
<polyline fill="none" vector-effect="none" points="893.636,598 893.636,592.52 " />
<polyline fill="none" vector-effect="none" points="1025.92,598 1025.92,592.52 " />
<polyline fill="none" vector-effect="none" points="1158.21,598 1158.21,592.52 " />
<polyline fill="none" vector-effect="none" points="1290.49,598 1290.49,592.52 " />
</g>

<g fill="#212121" fill-opacity="1" stroke="#212121" stroke-opacity="1" stroke-width="1" stroke-linecap="square" stroke-linejoin="bevel" transform="matrix(0.375,0,0,0.375,270.726,238.987)"
font-family="Helvetica" font-size="37" font-weight="400" font-style="normal" 
>
<text fill="#212121" fill-opacity="1" stroke="none" xml:space="preserve" x="0" y="0" font-family="Helvetica" font-size="37" font-weight="400" font-style="normal" 
 >0</text>
</g>

<g fill="#212121" fill-opacity="1" stroke="#212121" stroke-opacity="1" stroke-width="1" stroke-linecap="square" stroke-linejoin="bevel" transform="matrix(0.375,0,0,0.375,316.395,238.987)"
font-family="Helvetica" font-size="37" font-weight="400" font-style="normal" 
>
<text fill="#212121" fill-opacity="1" stroke="none" xml:space="preserve" x="0" y="0" font-family="Helvetica" font-size="37" font-weight="400" font-style="normal" 
 >10</text>
</g>

<g fill="#212121" fill-opacity="1" stroke="#212121" stroke-opacity="1" stroke-width="1" stroke-linecap="square" stroke-linejoin="bevel" transform="matrix(0.375,0,0,0.375,366.002,238.987)"
font-family="Helvetica" font-size="37" font-weight="400" font-style="normal" 
>
<text fill="#212121" fill-opacity="1" stroke="none" xml:space="preserve" x="0" y="0" font-family="Helvetica" font-size="37" font-weight="400" font-style="normal" 
 >20</text>
</g>

<g fill="#212121" fill-opacity="1" stroke="#212121" stroke-opacity="1" stroke-width="1" stroke-linecap="square" stroke-linejoin="bevel" transform="matrix(0.375,0,0,0.375,415.609,238.987)"
font-family="Helvetica" font-size="37" font-weight="400" font-style="normal" 
>
<text fill="#212121" fill-opacity="1" stroke="none" xml:space="preserve" x="0" y="0" font-family="Helvetica" font-size="37" font-weight="400" font-style="normal" 
 >30</text>
</g>

<g fill="#212121" fill-opacity="1" stroke="#212121" stroke-opacity="1" stroke-width="1.33333" stroke-linecap="square" stroke-linejoin="round" transform="matrix(0.375,0,0,0.375,-60.45,-2.8125)"
font-family="Helvetica" font-size="37" font-weight="400" font-style="normal" 
>
<polyline fill="none" vector-effect="none" points="873,598 873,50 " />
<polyline fill="none" vector-effect="none" points="873,598 878.48,598 " />
<polyline fill="none" vector-effect="none" points="873,488.4 878.48,488.4 " />
<polyline fill="none" vector-effect="none" points="873,378.8 878.48,378.8 " />
<polyline fill="none" vector-effect="none" points="873,269.2 878.48,269.2 " />
<polyline fill="none" vector-effect="none" points="873,159.6 878.48,159.6 " />
<polyline fill="none" vector-effect="none" points="873,50 878.48,50 " />
</g>

<g fill="#212121" fill-opacity="1" stroke="#212121" stroke-opacity="1" stroke-width="1" stroke-linecap="square" stroke-linejoin="bevel" transform="matrix(0.375,0,0,0.375,254.25,226.313)"
font-family="Helvetica" font-size="37" font-weight="400" font-style="normal" 
>
<text fill="#212121" fill-opacity="1" stroke="none" xml:space="preserve" x="0" y="0" font-family="Helvetica" font-size="37" font-weight="400" font-style="normal" 
 >0</text>
</g>

<g fill="#212121" fill-opacity="1" stroke="#212121" stroke-opacity="1" stroke-width="1" stroke-linecap="square" stroke-linejoin="bevel" transform="matrix(0.375,0,0,0.375,242.625,185.213)"
font-family="Helvetica" font-size="37" font-weight="400" font-style="normal" 
>
<text fill="#212121" fill-opacity="1" stroke="none" xml:space="preserve" x="0" y="0" font-family="Helvetica" font-size="37" font-weight="400" font-style="normal" 
 >0.2</text>
</g>

<g fill="#212121" fill-opacity="1" stroke="#212121" stroke-opacity="1" stroke-width="1" stroke-linecap="square" stroke-linejoin="bevel" transform="matrix(0.375,0,0,0.375,242.625,144.112)"
font-family="Helvetica" font-size="37" font-weight="400" font-style="normal" 
>
<text fill="#212121" fill-opacity="1" stroke="none" xml:space="preserve" x="0" y="0" font-family="Helvetica" font-size="37" font-weight="400" font-style="normal" 
 >0.4</text>
</g>

<g fill="#212121" fill-opacity="1" stroke="#212121" stroke-opacity="1" stroke-width="1" stroke-linecap="square" stroke-linejoin="bevel" transform="matrix(0.375,0,0,0.375,242.625,103.012)"
font-family="Helvetica" font-size="37" font-weight="400" font-style="normal" 
>
<text fill="#212121" fill-opacity="1" stroke="none" xml:space="preserve" x="0" y="0" font-family="Helvetica" font-size="37" font-weight="400" font-style="normal" 
 >0.6</text>
</g>

<g fill="#212121" fill-opacity="1" stroke="#212121" stroke-opacity="1" stroke-width="1" stroke-linecap="square" stroke-linejoin="bevel" transform="matrix(0.375,0,0,0.375,242.625,61.9125)"
font-family="Helvetica" font-size="37" font-weight="400" font-style="normal" 
>
<text fill="#212121" fill-opacity="1" stroke="none" xml:space="preserve" x="0" y="0" font-family="Helvetica" font-size="37" font-weight="400" font-style="normal" 
 >0.8</text>
</g>

<g fill="#212121" fill-opacity="1" stroke="#212121" stroke-opacity="1" stroke-width="1" stroke-linecap="square" stroke-linejoin="bevel" transform="matrix(0.375,0,0,0.375,254.25,20.8125)"
font-family="Helvetica" font-size="37" font-weight="400" font-style="normal" 
>
<text fill="#212121" fill-opacity="1" stroke="none" xml:space="preserve" x="0" y="0" font-family="Helvetica" font-size="37" font-weight="400" font-style="normal" 
 >1</text>
</g>

<g fill="#ffffff" fill-opacity="1" stroke="none" transform="matrix(3.75e-05,0,0,3.75e-05,-60.45,-2.8125)"
font-family="Helvetica" font-size="37" font-weight="400" font-style="normal" 
>
<path vector-effect="none" fill-rule="evenodd" d="M1.47e+07,500000 L1.47e+07,5.98e+06 L1.924e+07,5.98e+06 L1.924e+07,500000 L1.47e+07,500000"/>
</g>

<g fill="#212121" fill-opacity="1" stroke="#212121" stroke-opacity="1" stroke-width="1" stroke-linecap="square" stroke-linejoin="bevel" transform="matrix(0.375,0,0,0.375,482.738,11.625)"
font-family="Helvetica" font-size="37" font-weight="400" font-style="normal" 
>
<text fill="#212121" fill-opacity="1" stroke="none" xml:space="preserve" x="0" y="0" font-family="Helvetica" font-size="37" font-weight="400" font-style="normal" 
 >Multiple-Timescale Adaptation</text>
</g>

<g fill="#808080" fill-opacity="0.6" stroke="none" transform="matrix(3.75e-05,0,0,3.75e-05,-60.45,-2.8125)"
font-family="Helvetica" font-size="37" font-weight="400" font-style="normal" 
>
<path vector-effect="none" fill-rule="evenodd" d="M1.49064e+07,1.048e+06 L1.49064e+07,5.98e+06 L1.50651e+07,5.98e+06 L1.50651e+07,1.048e+06 L1.49064e+07,1.048e+06"/>
</g>

<g fill="#808080" fill-opacity="0.6" stroke="none" transform="matrix(3.75e-05,0,0,3.75e-05,-60.45,-2.8125)"
font-family="Helvetica" font-size="37" font-weight="400" font-style="normal" 
>
<path vector-effect="none" fill-rule="evenodd" d="M1.50651e+07,5.706e+06 L1.50651e+07,5.98e+06 L1.52238e+07,5.98e+06 L1.52238e+07,5.706e+06 L1.50651e+07,5.706e+06"/>
</g>

<g fill="#808080" fill-opacity="0.6" stroke="none" transform="matrix(3.75e-05,0,0,3.75e-05,-60.45,-2.8125)"
font-family="Helvetica" font-size="37" font-weight="400" font-style="normal" 
>
<path vector-effect="none" fill-rule="evenodd" d="M1.88749e+07,5.706e+06 L1.88749e+07,5.98e+06 L1.90336e+07,5.98e+06 L1.90336e+07,5.706e+06 L1.88749e+07,5.706e+06"/>
</g>

<g fill="#212121" fill-opacity="1" stroke="#212121" stroke-opacity="1" stroke-width="1" stroke-linecap="square" stroke-linejoin="bevel" transform="matrix(0.375,0,0,0.375,563.925,254.813)"
font-family="Helvetica" font-size="35" font-weight="400" font-style="normal" 
>
<text fill="#212121" fill-opacity="1" stroke="none" xml:space="preserve" x="0" y="0" font-family="Helvetica" font-size="35" font-weight="400" font-style="normal" 
 >D</text>
</g>

<g fill="#212121" fill-opacity="1" stroke="#212121" stroke-opacity="1" stroke-width="1" stroke-linecap="square" stroke-linejoin="bevel" transform="matrix(0.375,0,0,0.375,573.3,261.188)"
font-family="Helvetica" font-size="28" font-weight="400" font-style="normal" 
>
<text fill="#212121" fill-opacity="1" stroke="none" xml:space="preserve" x="0" y="0" font-family="Helvetica" font-size="28" font-weight="400" font-style="normal" 
 >KY</text>
</g>

<g fill="#212121" fill-opacity="1" stroke="#212121" stroke-opacity="1" stroke-width="1.33333" stroke-linecap="square" stroke-linejoin="round" transform="matrix(0.375,0,0,0.375,-60.45,-2.8125)"
font-family="Helvetica" font-size="28" font-weight="400" font-style="normal" 
>
<polyline fill="none" vector-effect="none" points="1470,598 1924,598 " />
<polyline fill="none" vector-effect="none" points="1490.64,598 1490.64,592.52 " />
<polyline fill="none" vector-effect="none" points="1622.92,598 1622.92,592.52 " />
<polyline fill="none" vector-effect="none" points="1755.21,598 1755.21,592.52 " />
<polyline fill="none" vector-effect="none" points="1887.49,598 1887.49,592.52 " />
</g>

<g fill="#212121" fill-opacity="1" stroke="#212121" stroke-opacity="1" stroke-width="1" stroke-linecap="square" stroke-linejoin="bevel" transform="matrix(0.375,0,0,0.375,494.601,238.987)"
font-family="Helvetica" font-size="37" font-weight="400" font-style="normal" 
>
<text fill="#212121" fill-opacity="1" stroke="none" xml:space="preserve" x="0" y="0" font-family="Helvetica" font-size="37" font-weight="400" font-style="normal" 
 >0</text>
</g>

<g fill="#212121" fill-opacity="1" stroke="#212121" stroke-opacity="1" stroke-width="1" stroke-linecap="square" stroke-linejoin="bevel" transform="matrix(0.375,0,0,0.375,540.27,238.987)"
font-family="Helvetica" font-size="37" font-weight="400" font-style="normal" 
>
<text fill="#212121" fill-opacity="1" stroke="none" xml:space="preserve" x="0" y="0" font-family="Helvetica" font-size="37" font-weight="400" font-style="normal" 
 >10</text>
</g>

<g fill="#212121" fill-opacity="1" stroke="#212121" stroke-opacity="1" stroke-width="1" stroke-linecap="square" stroke-linejoin="bevel" transform="matrix(0.375,0,0,0.375,589.877,238.987)"
font-family="Helvetica" font-size="37" font-weight="400" font-style="normal" 
>
<text fill="#212121" fill-opacity="1" stroke="none" xml:space="preserve" x="0" y="0" font-family="Helvetica" font-size="37" font-weight="400" font-style="normal" 
 >20</text>
</g>

<g fill="#212121" fill-opacity="1" stroke="#212121" stroke-opacity="1" stroke-width="1" stroke-linecap="square" stroke-linejoin="bevel" transform="matrix(0.375,0,0,0.375,639.484,238.987)"
font-family="Helvetica" font-size="37" font-weight="400" font-style="normal" 
>
<text fill="#212121" fill-opacity="1" stroke="none" xml:space="preserve" x="0" y="0" font-family="Helvetica" font-size="37" font-weight="400" font-style="normal" 
 >30</text>
</g>

<g fill="#212121" fill-opacity="1" stroke="#212121" stroke-opacity="1" stroke-width="1.33333" stroke-linecap="square" stroke-linejoin="round" transform="matrix(0.375,0,0,0.375,-60.45,-2.8125)"
font-family="Helvetica" font-size="37" font-weight="400" font-style="normal" 
>
<polyline fill="none" vector-effect="none" points="1470,598 1470,50 " />
<polyline fill="none" vector-effect="none" points="1470,598 1475.48,598 " />
<polyline fill="none" vector-effect="none" points="1470,488.4 1475.48,488.4 " />
<polyline fill="none" vector-effect="none" points="1470,378.8 1475.48,378.8 " />
<polyline fill="none" vector-effect="none" points="1470,269.2 1475.48,269.2 " />
<polyline fill="none" vector-effect="none" points="1470,159.6 1475.48,159.6 " />
<polyline fill="none" vector-effect="none" points="1470,50 1475.48,50 " />
</g>

<g fill="#212121" fill-opacity="1" stroke="#212121" stroke-opacity="1" stroke-width="1" stroke-linecap="square" stroke-linejoin="bevel" transform="matrix(0.375,0,0,0.375,478.125,226.313)"
font-family="Helvetica" font-size="37" font-weight="400" font-style="normal" 
>
<text fill="#212121" fill-opacity="1" stroke="none" xml:space="preserve" x="0" y="0" font-family="Helvetica" font-size="37" font-weight="400" font-style="normal" 
 >0</text>
</g>

<g fill="#212121" fill-opacity="1" stroke="#212121" stroke-opacity="1" stroke-width="1" stroke-linecap="square" stroke-linejoin="bevel" transform="matrix(0.375,0,0,0.375,466.5,185.213)"
font-family="Helvetica" font-size="37" font-weight="400" font-style="normal" 
>
<text fill="#212121" fill-opacity="1" stroke="none" xml:space="preserve" x="0" y="0" font-family="Helvetica" font-size="37" font-weight="400" font-style="normal" 
 >0.2</text>
</g>

<g fill="#212121" fill-opacity="1" stroke="#212121" stroke-opacity="1" stroke-width="1" stroke-linecap="square" stroke-linejoin="bevel" transform="matrix(0.375,0,0,0.375,466.5,144.112)"
font-family="Helvetica" font-size="37" font-weight="400" font-style="normal" 
>
<text fill="#212121" fill-opacity="1" stroke="none" xml:space="preserve" x="0" y="0" font-family="Helvetica" font-size="37" font-weight="400" font-style="normal" 
 >0.4</text>
</g>

<g fill="#212121" fill-opacity="1" stroke="#212121" stroke-opacity="1" stroke-width="1" stroke-linecap="square" stroke-linejoin="bevel" transform="matrix(0.375,0,0,0.375,466.5,103.012)"
font-family="Helvetica" font-size="37" font-weight="400" font-style="normal" 
>
<text fill="#212121" fill-opacity="1" stroke="none" xml:space="preserve" x="0" y="0" font-family="Helvetica" font-size="37" font-weight="400" font-style="normal" 
 >0.6</text>
</g>

<g fill="#212121" fill-opacity="1" stroke="#212121" stroke-opacity="1" stroke-width="1" stroke-linecap="square" stroke-linejoin="bevel" transform="matrix(0.375,0,0,0.375,466.5,61.9125)"
font-family="Helvetica" font-size="37" font-weight="400" font-style="normal" 
>
<text fill="#212121" fill-opacity="1" stroke="none" xml:space="preserve" x="0" y="0" font-family="Helvetica" font-size="37" font-weight="400" font-style="normal" 
 >0.8</text>
</g>

<g fill="#212121" fill-opacity="1" stroke="#212121" stroke-opacity="1" stroke-width="1" stroke-linecap="square" stroke-linejoin="bevel" transform="matrix(0.375,0,0,0.375,478.125,20.8125)"
font-family="Helvetica" font-size="37" font-weight="400" font-style="normal" 
>
<text fill="#212121" fill-opacity="1" stroke="none" xml:space="preserve" x="0" y="0" font-family="Helvetica" font-size="37" font-weight="400" font-style="normal" 
 >1</text>
</g>

<g fill="#999999" fill-opacity="1" stroke="#999999" stroke-opacity="1" stroke-width="4" stroke-linecap="butt" stroke-linejoin="round" transform="matrix(0.375,0,0,0.375,-60.45,-2.8125)"
font-family="Helvetica" font-size="37" font-weight="400" font-style="normal" 
>
<polyline fill="none" vector-effect="none" points="786.836,598.08 786.836,50.4 " />
<polyline fill="none" vector-effect="none" points="1383.81,598.08 1383.81,50.4 " />
</g>
</g>
</svg>
