<?xml version="1.0" encoding="UTF-8" standalone="no"?>
<svg width="236.361mm" height="92.7806mm"
 viewBox="0 0 670 263"
 xmlns="http://www.w3.org/2000/svg" xmlns:xlink="http://www.w3.org/1999/xlink" version="1.1">
<title>Qt SVG Document</title>
<desc>MATLAB, The MathWorks, Inc. Version 26.1.0.3312084 R2026a Update 4</desc>
<defs>
</defs>
<g fill="none" stroke="black" stroke-width="1" fill-rule="evenodd" stroke-linecap="square" stroke-linejoin="bevel" >

<g fill="#ffffff" fill-opacity="1" stroke="none" transform="matrix(3.75e-05,0,0,3.75e-05,-60.45,-2.81251)"
font-family="Segoe UI" font-size="9" font-weight="400" font-style="normal" 
>
<path vector-effect="none" fill-rule="evenodd" d="M2.76e+06,500000 L2.76e+06,5.98e+06 L7.3e+06,5.98e+06 L7.3e+06,500000 L2.76e+06,500000"/>
</g>

<g fill="#212121" fill-opacity="1" stroke="#212121" stroke-opacity="1" stroke-width="1" stroke-linecap="square" stroke-linejoin="bevel" transform="matrix(0.375,0,0,0.375,84.1127,11.625)"
font-family="Helvetica" font-size="37" font-weight="400" font-style="normal" 
>
<text fill="#212121" fill-opacity="1" stroke="none" xml:space="preserve" x="0" y="0" font-family="Helvetica" font-size="37" font-weight="400" font-style="normal" 
 >No Adaptation</text>
</g>

<g fill="#808080" fill-opacity="0.6" stroke="none" transform="matrix(3.75e-05,0,0,3.75e-05,-60.45,-2.81251)"
font-family="Helvetica" font-size="37" font-weight="400" font-style="normal" 
>
<path vector-effect="none" fill-rule="evenodd" d="M2.96636e+06,1.31819e+06 L2.96636e+06,5.98e+06 L3.12511e+06,5.98e+06 L3.12511e+06,1.31819e+06 L2.96636e+06,1.31819e+06"/>
</g>

<g fill="#808080" fill-opacity="0.6" stroke="none" transform="matrix(3.75e-05,0,0,3.75e-05,-60.45,-2.81251)"
font-family="Helvetica" font-size="37" font-weight="400" font-style="normal" 
>
<path vector-effect="none" fill-rule="evenodd" d="M3.12511e+06,5.88486e+06 L3.12511e+06,5.98e+06 L3.28385e+06,5.98e+06 L3.44259e+06,5.98e+06 L3.44259e+06,5.88486e+06 L3.28385e+06,5.88486e+06 L3.12511e+06,5.88486e+06"/>
</g>

<g fill="#808080" fill-opacity="0.6" stroke="none" transform="matrix(3.75e-05,0,0,3.75e-05,-60.45,-2.81251)"
font-family="Helvetica" font-size="37" font-weight="400" font-style="normal" 
>
<path vector-effect="none" fill-rule="evenodd" d="M3.76007e+06,5.69458e+06 L3.76007e+06,5.98e+06 L3.91881e+06,5.98e+06 L3.91881e+06,5.69458e+06 L3.76007e+06,5.69458e+06"/>
</g>

<g fill="#808080" fill-opacity="0.6" stroke="none" transform="matrix(3.75e-05,0,0,3.75e-05,-60.45,-2.81251)"
font-family="Helvetica" font-size="37" font-weight="400" font-style="normal" 
>
<path vector-effect="none" fill-rule="evenodd" d="M4.39504e+06,5.78972e+06 L4.39504e+06,5.98e+06 L4.55378e+06,5.98e+06 L4.55378e+06,5.78972e+06 L4.39504e+06,5.78972e+06"/>
</g>

<g fill="#808080" fill-opacity="0.6" stroke="none" transform="matrix(3.75e-05,0,0,3.75e-05,-60.45,-2.81251)"
font-family="Helvetica" font-size="37" font-weight="400" font-style="normal" 
>
<path vector-effect="none" fill-rule="evenodd" d="M4.71252e+06,5.88486e+06 L4.71252e+06,5.98e+06 L4.87126e+06,5.98e+06 L4.87126e+06,5.88486e+06 L4.71252e+06,5.88486e+06"/>
</g>

<g fill="#808080" fill-opacity="0.6" stroke="none" transform="matrix(3.75e-05,0,0,3.75e-05,-60.45,-2.81251)"
font-family="Helvetica" font-size="37" font-weight="400" font-style="normal" 
>
<path vector-effect="none" fill-rule="evenodd" d="M5.66497e+06,5.88486e+06 L5.66497e+06,5.98e+06 L5.82371e+06,5.98e+06 L5.82371e+06,5.88486e+06 L5.66497e+06,5.88486e+06"/>
</g>

<g fill="#808080" fill-opacity="0.6" stroke="none" transform="matrix(3.75e-05,0,0,3.75e-05,-60.45,-2.81251)"
font-family="Helvetica" font-size="37" font-weight="400" font-style="normal" 
>
<path vector-effect="none" fill-rule="evenodd" d="M6.14119e+06,5.88486e+06 L6.14119e+06,5.98e+06 L6.29993e+06,5.98e+06 L6.29993e+06,5.88486e+06 L6.14119e+06,5.88486e+06"/>
</g>

<g fill="#808080" fill-opacity="0.6" stroke="none" transform="matrix(3.75e-05,0,0,3.75e-05,-60.45,-2.81251)"
font-family="Helvetica" font-size="37" font-weight="400" font-style="normal" 
>
<path vector-effect="none" fill-rule="evenodd" d="M6.77615e+06,5.88486e+06 L6.77615e+06,5.98e+06 L6.9349e+06,5.98e+06 L6.9349e+06,5.88486e+06 L6.77615e+06,5.88486e+06"/>
</g>

<g fill="#808080" fill-opacity="0.6" stroke="none" transform="matrix(3.75e-05,0,0,3.75e-05,-60.45,-2.81251)"
font-family="Helvetica" font-size="37" font-weight="400" font-style="normal" 
>
<path vector-effect="none" fill-rule="evenodd" d="M6.9349e+06,5.59944e+06 L6.9349e+06,5.98e+06 L7.09364e+06,5.98e+06 L7.09364e+06,5.59944e+06 L6.9349e+06,5.59944e+06"/>
</g>

<g fill="#212121" fill-opacity="1" stroke="#212121" stroke-opacity="1" stroke-width="1" stroke-linecap="square" stroke-linejoin="bevel" transform="matrix(0.375,0,0,0.375,98.925,254.812)"
font-family="Helvetica" font-size="35" font-weight="400" font-style="normal" 
>
<text fill="#212121" fill-opacity="1" stroke="none" xml:space="preserve" x="0" y="0" font-family="Helvetica" font-size="35" font-weight="400" font-style="normal" 
 >h</text>
</g>

<g fill="#212121" fill-opacity="1" stroke="#212121" stroke-opacity="1" stroke-width="1" stroke-linecap="square" stroke-linejoin="bevel" transform="matrix(0.375,0,0,0.375,106.05,261.187)"
font-family="Helvetica" font-size="28" font-weight="400" font-style="normal" 
>
<text fill="#212121" fill-opacity="1" stroke="none" xml:space="preserve" x="0" y="0" font-family="Helvetica" font-size="28" font-weight="400" font-style="normal" 
 >KS</text>
</g>

<g fill="#212121" fill-opacity="1" stroke="#212121" stroke-opacity="1" stroke-width="1" stroke-linecap="square" stroke-linejoin="bevel" transform="matrix(0.375,0,0,0.375,120.3,254.812)"
font-family="Helvetica" font-size="35" font-weight="400" font-style="normal" 
>
<text fill="#212121" fill-opacity="1" stroke="none" xml:space="preserve" x="0" y="0" font-family="Helvetica" font-size="35" font-weight="400" font-style="normal" 
 > (bit/s)</text>
</g>

<g fill="#212121" fill-opacity="1" stroke="#212121" stroke-opacity="1" stroke-width="1.33333" stroke-linecap="square" stroke-linejoin="round" transform="matrix(0.375,0,0,0.375,-60.45,-2.81251)"
font-family="Helvetica" font-size="35" font-weight="400" font-style="normal" 
>
<polyline fill="none" vector-effect="none" points="276,598 730,598 " />
<polyline fill="none" vector-effect="none" points="296.636,598 296.636,592.52 " />
<polyline fill="none" vector-effect="none" points="495.063,598 495.063,592.52 " />
<polyline fill="none" vector-effect="none" points="693.49,598 693.49,592.52 " />
</g>

<g fill="#212121" fill-opacity="1" stroke="#212121" stroke-opacity="1" stroke-width="1" stroke-linecap="square" stroke-linejoin="bevel" transform="matrix(0.375,0,0,0.375,46.8511,238.987)"
font-family="Helvetica" font-size="37" font-weight="400" font-style="normal" 
>
<text fill="#212121" fill-opacity="1" stroke="none" xml:space="preserve" x="0" y="0" font-family="Helvetica" font-size="37" font-weight="400" font-style="normal" 
 >0</text>
</g>

<g fill="#212121" fill-opacity="1" stroke="#212121" stroke-opacity="1" stroke-width="1" stroke-linecap="square" stroke-linejoin="bevel" transform="matrix(0.375,0,0,0.375,117.324,238.987)"
font-family="Helvetica" font-size="37" font-weight="400" font-style="normal" 
>
<text fill="#212121" fill-opacity="1" stroke="none" xml:space="preserve" x="0" y="0" font-family="Helvetica" font-size="37" font-weight="400" font-style="normal" 
 >20</text>
</g>

<g fill="#212121" fill-opacity="1" stroke="#212121" stroke-opacity="1" stroke-width="1" stroke-linecap="square" stroke-linejoin="bevel" transform="matrix(0.375,0,0,0.375,191.734,238.987)"
font-family="Helvetica" font-size="37" font-weight="400" font-style="normal" 
>
<text fill="#212121" fill-opacity="1" stroke="none" xml:space="preserve" x="0" y="0" font-family="Helvetica" font-size="37" font-weight="400" font-style="normal" 
 >40</text>
</g>

<g fill="#212121" fill-opacity="1" stroke="#212121" stroke-opacity="1" stroke-width="1" stroke-linecap="square" stroke-linejoin="bevel" transform="matrix(0,-0.375,0.375,0,12.375,154.687)"
font-family="Helvetica" font-size="41" font-weight="400" font-style="normal" 
>
<text fill="#212121" fill-opacity="1" stroke="none" xml:space="preserve" x="0" y="0" font-family="Helvetica" font-size="41" font-weight="400" font-style="normal" 
 >Probability</text>
</g>

<g fill="#212121" fill-opacity="1" stroke="#212121" stroke-opacity="1" stroke-width="1.33333" stroke-linecap="square" stroke-linejoin="round" transform="matrix(0.375,0,0,0.375,-60.45,-2.81251)"
font-family="Helvetica" font-size="41" font-weight="400" font-style="normal" 
>
<polyline fill="none" vector-effect="none" points="276,598 276,50 " />
<polyline fill="none" vector-effect="none" points="276,598 281.48,598 " />
<polyline fill="none" vector-effect="none" points="276,476.222 281.48,476.222 " />
<polyline fill="none" vector-effect="none" points="276,354.444 281.48,354.444 " />
<polyline fill="none" vector-effect="none" points="276,232.667 281.48,232.667 " />
<polyline fill="none" vector-effect="none" points="276,110.889 281.48,110.889 " />
</g>

<g fill="#212121" fill-opacity="1" stroke="#212121" stroke-opacity="1" stroke-width="1" stroke-linecap="square" stroke-linejoin="bevel" transform="matrix(0.375,0,0,0.375,30.375,226.312)"
font-family="Helvetica" font-size="37" font-weight="400" font-style="normal" 
>
<text fill="#212121" fill-opacity="1" stroke="none" xml:space="preserve" x="0" y="0" font-family="Helvetica" font-size="37" font-weight="400" font-style="normal" 
 >0</text>
</g>

<g fill="#212121" fill-opacity="1" stroke="#212121" stroke-opacity="1" stroke-width="1" stroke-linecap="square" stroke-linejoin="bevel" transform="matrix(0.375,0,0,0.375,18.75,180.646)"
font-family="Helvetica" font-size="37" font-weight="400" font-style="normal" 
>
<text fill="#212121" fill-opacity="1" stroke="none" xml:space="preserve" x="0" y="0" font-family="Helvetica" font-size="37" font-weight="400" font-style="normal" 
 >0.2</text>
</g>

<g fill="#212121" fill-opacity="1" stroke="#212121" stroke-opacity="1" stroke-width="1" stroke-linecap="square" stroke-linejoin="bevel" transform="matrix(0.375,0,0,0.375,18.75,134.979)"
font-family="Helvetica" font-size="37" font-weight="400" font-style="normal" 
>
<text fill="#212121" fill-opacity="1" stroke="none" xml:space="preserve" x="0" y="0" font-family="Helvetica" font-size="37" font-weight="400" font-style="normal" 
 >0.4</text>
</g>

<g fill="#212121" fill-opacity="1" stroke="#212121" stroke-opacity="1" stroke-width="1" stroke-linecap="square" stroke-linejoin="bevel" transform="matrix(0.375,0,0,0.375,18.75,89.3125)"
font-family="Helvetica" font-size="37" font-weight="400" font-style="normal" 
>
<text fill="#212121" fill-opacity="1" stroke="none" xml:space="preserve" x="0" y="0" font-family="Helvetica" font-size="37" font-weight="400" font-style="normal" 
 >0.6</text>
</g>

<g fill="#212121" fill-opacity="1" stroke="#212121" stroke-opacity="1" stroke-width="1" stroke-linecap="square" stroke-linejoin="bevel" transform="matrix(0.375,0,0,0.375,18.75,43.6458)"
font-family="Helvetica" font-size="37" font-weight="400" font-style="normal" 
>
<text fill="#212121" fill-opacity="1" stroke="none" xml:space="preserve" x="0" y="0" font-family="Helvetica" font-size="37" font-weight="400" font-style="normal" 
 >0.8</text>
</g>

<g fill="#ffffff" fill-opacity="1" stroke="none" transform="matrix(3.75e-05,0,0,3.75e-05,-60.45,-2.81251)"
font-family="Helvetica" font-size="37" font-weight="400" font-style="normal" 
>
<path vector-effect="none" fill-rule="evenodd" d="M8.73e+06,500000 L8.73e+06,5.98e+06 L1.327e+07,5.98e+06 L1.327e+07,500000 L8.73e+06,500000"/>
</g>

<g fill="#212121" fill-opacity="1" stroke="#212121" stroke-opacity="1" stroke-width="1" stroke-linecap="square" stroke-linejoin="bevel" transform="matrix(0.375,0,0,0.375,263.363,11.625)"
font-family="Helvetica" font-size="37" font-weight="400" font-style="normal" 
>
<text fill="#212121" fill-opacity="1" stroke="none" xml:space="preserve" x="0" y="0" font-family="Helvetica" font-size="37" font-weight="400" font-style="normal" 
 >Single-Timescale Adaptation</text>
</g>

<g fill="#808080" fill-opacity="0.6" stroke="none" transform="matrix(3.75e-05,0,0,3.75e-05,-60.45,-2.81251)"
font-family="Helvetica" font-size="37" font-weight="400" font-style="normal" 
>
<path vector-effect="none" fill-rule="evenodd" d="M8.93636e+06,1.03278e+06 L8.93636e+06,5.98e+06 L9.09511e+06,5.98e+06 L9.09511e+06,1.03278e+06 L8.93636e+06,1.03278e+06"/>
</g>

<g fill="#808080" fill-opacity="0.6" stroke="none" transform="matrix(3.75e-05,0,0,3.75e-05,-60.45,-2.81251)"
font-family="Helvetica" font-size="37" font-weight="400" font-style="normal" 
>
<path vector-effect="none" fill-rule="evenodd" d="M9.09511e+06,5.88486e+06 L9.09511e+06,5.98e+06 L9.25385e+06,5.98e+06 L9.41259e+06,5.98e+06 L9.57133e+06,5.98e+06 L9.73007e+06,5.98e+06 L9.73007e+06,5.88486e+06 L9.57133e+06,5.88486e+06 L9.41259e+06,5.88486e+06 L9.25385e+06,5.88486e+06 L9.09511e+06,5.88486e+06"/>
</g>

<g fill="#808080" fill-opacity="0.6" stroke="none" transform="matrix(3.75e-05,0,0,3.75e-05,-60.45,-2.81251)"
font-family="Helvetica" font-size="37" font-weight="400" font-style="normal" 
>
<path vector-effect="none" fill-rule="evenodd" d="M1.29049e+07,5.21889e+06 L1.29049e+07,5.98e+06 L1.30636e+07,5.98e+06 L1.30636e+07,5.21889e+06 L1.29049e+07,5.21889e+06"/>
</g>

<g fill="#212121" fill-opacity="1" stroke="#212121" stroke-opacity="1" stroke-width="1" stroke-linecap="square" stroke-linejoin="bevel" transform="matrix(0.375,0,0,0.375,322.8,254.812)"
font-family="Helvetica" font-size="35" font-weight="400" font-style="normal" 
>
<text fill="#212121" fill-opacity="1" stroke="none" xml:space="preserve" x="0" y="0" font-family="Helvetica" font-size="35" font-weight="400" font-style="normal" 
 >h</text>
</g>

<g fill="#212121" fill-opacity="1" stroke="#212121" stroke-opacity="1" stroke-width="1" stroke-linecap="square" stroke-linejoin="bevel" transform="matrix(0.375,0,0,0.375,329.925,261.187)"
font-family="Helvetica" font-size="28" font-weight="400" font-style="normal" 
>
<text fill="#212121" fill-opacity="1" stroke="none" xml:space="preserve" x="0" y="0" font-family="Helvetica" font-size="28" font-weight="400" font-style="normal" 
 >KS</text>
</g>

<g fill="#212121" fill-opacity="1" stroke="#212121" stroke-opacity="1" stroke-width="1" stroke-linecap="square" stroke-linejoin="bevel" transform="matrix(0.375,0,0,0.375,344.175,254.812)"
font-family="Helvetica" font-size="35" font-weight="400" font-style="normal" 
>
<text fill="#212121" fill-opacity="1" stroke="none" xml:space="preserve" x="0" y="0" font-family="Helvetica" font-size="35" font-weight="400" font-style="normal" 
 > (bit/s)</text>
</g>

<g fill="#212121" fill-opacity="1" stroke="#212121" stroke-opacity="1" stroke-width="1.33333" stroke-linecap="square" stroke-linejoin="round" transform="matrix(0.375,0,0,0.375,-60.45,-2.81251)"
font-family="Helvetica" font-size="35" font-weight="400" font-style="normal" 
>
<polyline fill="none" vector-effect="none" points="873,598 1327,598 " />
<polyline fill="none" vector-effect="none" points="893.636,598 893.636,592.52 " />
<polyline fill="none" vector-effect="none" points="1092.06,598 1092.06,592.52 " />
<polyline fill="none" vector-effect="none" points="1290.49,598 1290.49,592.52 " />
</g>

<g fill="#212121" fill-opacity="1" stroke="#212121" stroke-opacity="1" stroke-width="1" stroke-linecap="square" stroke-linejoin="bevel" transform="matrix(0.375,0,0,0.375,270.726,238.987)"
font-family="Helvetica" font-size="37" font-weight="400" font-style="normal" 
>
<text fill="#212121" fill-opacity="1" stroke="none" xml:space="preserve" x="0" y="0" font-family="Helvetica" font-size="37" font-weight="400" font-style="normal" 
 >0</text>
</g>

<g fill="#212121" fill-opacity="1" stroke="#212121" stroke-opacity="1" stroke-width="1" stroke-linecap="square" stroke-linejoin="bevel" transform="matrix(0.375,0,0,0.375,341.199,238.987)"
font-family="Helvetica" font-size="37" font-weight="400" font-style="normal" 
>
<text fill="#212121" fill-opacity="1" stroke="none" xml:space="preserve" x="0" y="0" font-family="Helvetica" font-size="37" font-weight="400" font-style="normal" 
 >20</text>
</g>

<g fill="#212121" fill-opacity="1" stroke="#212121" stroke-opacity="1" stroke-width="1" stroke-linecap="square" stroke-linejoin="bevel" transform="matrix(0.375,0,0,0.375,415.609,238.987)"
font-family="Helvetica" font-size="37" font-weight="400" font-style="normal" 
>
<text fill="#212121" fill-opacity="1" stroke="none" xml:space="preserve" x="0" y="0" font-family="Helvetica" font-size="37" font-weight="400" font-style="normal" 
 >40</text>
</g>

<g fill="#212121" fill-opacity="1" stroke="#212121" stroke-opacity="1" stroke-width="1.33333" stroke-linecap="square" stroke-linejoin="round" transform="matrix(0.375,0,0,0.375,-60.45,-2.81251)"
font-family="Helvetica" font-size="37" font-weight="400" font-style="normal" 
>
<polyline fill="none" vector-effect="none" points="873,598 873,50 " />
<polyline fill="none" vector-effect="none" points="873,598 878.48,598 " />
<polyline fill="none" vector-effect="none" points="873,476.222 878.48,476.222 " />
<polyline fill="none" vector-effect="none" points="873,354.444 878.48,354.444 " />
<polyline fill="none" vector-effect="none" points="873,232.667 878.48,232.667 " />
<polyline fill="none" vector-effect="none" points="873,110.889 878.48,110.889 " />
</g>

<g fill="#212121" fill-opacity="1" stroke="#212121" stroke-opacity="1" stroke-width="1" stroke-linecap="square" stroke-linejoin="bevel" transform="matrix(0.375,0,0,0.375,254.25,226.312)"
font-family="Helvetica" font-size="37" font-weight="400" font-style="normal" 
>
<text fill="#212121" fill-opacity="1" stroke="none" xml:space="preserve" x="0" y="0" font-family="Helvetica" font-size="37" font-weight="400" font-style="normal" 
 >0</text>
</g>

<g fill="#212121" fill-opacity="1" stroke="#212121" stroke-opacity="1" stroke-width="1" stroke-linecap="square" stroke-linejoin="bevel" transform="matrix(0.375,0,0,0.375,242.625,180.646)"
font-family="Helvetica" font-size="37" font-weight="400" font-style="normal" 
>
<text fill="#212121" fill-opacity="1" stroke="none" xml:space="preserve" x="0" y="0" font-family="Helvetica" font-size="37" font-weight="400" font-style="normal" 
 >0.2</text>
</g>

<g fill="#212121" fill-opacity="1" stroke="#212121" stroke-opacity="1" stroke-width="1" stroke-linecap="square" stroke-linejoin="bevel" transform="matrix(0.375,0,0,0.375,242.625,134.979)"
font-family="Helvetica" font-size="37" font-weight="400" font-style="normal" 
>
<text fill="#212121" fill-opacity="1" stroke="none" xml:space="preserve" x="0" y="0" font-family="Helvetica" font-size="37" font-weight="400" font-style="normal" 
 >0.4</text>
</g>

<g fill="#212121" fill-opacity="1" stroke="#212121" stroke-opacity="1" stroke-width="1" stroke-linecap="square" stroke-linejoin="bevel" transform="matrix(0.375,0,0,0.375,242.625,89.3125)"
font-family="Helvetica" font-size="37" font-weight="400" font-style="normal" 
>
<text fill="#212121" fill-opacity="1" stroke="none" xml:space="preserve" x="0" y="0" font-family="Helvetica" font-size="37" font-weight="400" font-style="normal" 
 >0.6</text>
</g>

<g fill="#212121" fill-opacity="1" stroke="#212121" stroke-opacity="1" stroke-width="1" stroke-linecap="square" stroke-linejoin="bevel" transform="matrix(0.375,0,0,0.375,242.625,43.6458)"
font-family="Helvetica" font-size="37" font-weight="400" font-style="normal" 
>
<text fill="#212121" fill-opacity="1" stroke="none" xml:space="preserve" x="0" y="0" font-family="Helvetica" font-size="37" font-weight="400" font-style="normal" 
 >0.8</text>
</g>

<g fill="#ffffff" fill-opacity="1" stroke="none" transform="matrix(3.75e-05,0,0,3.75e-05,-60.45,-2.81251)"
font-family="Helvetica" font-size="37" font-weight="400" font-style="normal" 
>
<path vector-effect="none" fill-rule="evenodd" d="M1.47e+07,500000 L1.47e+07,5.98e+06 L1.924e+07,5.98e+06 L1.924e+07,500000 L1.47e+07,500000"/>
</g>

<g fill="#212121" fill-opacity="1" stroke="#212121" stroke-opacity="1" stroke-width="1" stroke-linecap="square" stroke-linejoin="bevel" transform="matrix(0.375,0,0,0.375,482.738,11.625)"
font-family="Helvetica" font-size="37" font-weight="400" font-style="normal" 
>
<text fill="#212121" fill-opacity="1" stroke="none" xml:space="preserve" x="0" y="0" font-family="Helvetica" font-size="37" font-weight="400" font-style="normal" 
 >Multiple-Timescale Adaptation</text>
</g>

<g fill="#808080" fill-opacity="0.6" stroke="none" transform="matrix(3.75e-05,0,0,3.75e-05,-60.45,-2.81251)"
font-family="Helvetica" font-size="37" font-weight="400" font-style="normal" 
>
<path vector-effect="none" fill-rule="evenodd" d="M1.49064e+07,842500 L1.49064e+07,5.98e+06 L1.50651e+07,5.98e+06 L1.50651e+07,842500 L1.49064e+07,842500"/>
</g>

<g fill="#808080" fill-opacity="0.6" stroke="none" transform="matrix(3.75e-05,0,0,3.75e-05,-60.45,-2.81251)"
font-family="Helvetica" font-size="37" font-weight="400" font-style="normal" 
>
<path vector-effect="none" fill-rule="evenodd" d="M1.52238e+07,5.88486e+06 L1.52238e+07,5.98e+06 L1.53826e+07,5.98e+06 L1.53826e+07,5.88486e+06 L1.52238e+07,5.88486e+06"/>
</g>

<g fill="#808080" fill-opacity="0.6" stroke="none" transform="matrix(3.75e-05,0,0,3.75e-05,-60.45,-2.81251)"
font-family="Helvetica" font-size="37" font-weight="400" font-style="normal" 
>
<path vector-effect="none" fill-rule="evenodd" d="M1.55413e+07,5.88486e+06 L1.55413e+07,5.98e+06 L1.57001e+07,5.98e+06 L1.58588e+07,5.98e+06 L1.58588e+07,5.88486e+06 L1.57001e+07,5.88486e+06 L1.55413e+07,5.88486e+06"/>
</g>

<g fill="#808080" fill-opacity="0.6" stroke="none" transform="matrix(3.75e-05,0,0,3.75e-05,-60.45,-2.81251)"
font-family="Helvetica" font-size="37" font-weight="400" font-style="normal" 
>
<path vector-effect="none" fill-rule="evenodd" d="M1.87162e+07,5.88486e+06 L1.87162e+07,5.98e+06 L1.88749e+07,5.98e+06 L1.88749e+07,5.88486e+06 L1.87162e+07,5.88486e+06"/>
</g>

<g fill="#808080" fill-opacity="0.6" stroke="none" transform="matrix(3.75e-05,0,0,3.75e-05,-60.45,-2.81251)"
font-family="Helvetica" font-size="37" font-weight="400" font-style="normal" 
>
<path vector-effect="none" fill-rule="evenodd" d="M1.88749e+07,5.40917e+06 L1.88749e+07,5.98e+06 L1.90336e+07,5.98e+06 L1.90336e+07,5.40917e+06 L1.88749e+07,5.40917e+06"/>
</g>

<g fill="#212121" fill-opacity="1" stroke="#212121" stroke-opacity="1" stroke-width="1" stroke-linecap="square" stroke-linejoin="bevel" transform="matrix(0.375,0,0,0.375,546.675,254.812)"
font-family="Helvetica" font-size="35" font-weight="400" font-style="normal" 
>
<text fill="#212121" fill-opacity="1" stroke="none" xml:space="preserve" x="0" y="0" font-family="Helvetica" font-size="35" font-weight="400" font-style="normal" 
 >h</text>
</g>

<g fill="#212121" fill-opacity="1" stroke="#212121" stroke-opacity="1" stroke-width="1" stroke-linecap="square" stroke-linejoin="bevel" transform="matrix(0.375,0,0,0.375,553.8,261.187)"
font-family="Helvetica" font-size="28" font-weight="400" font-style="normal" 
>
<text fill="#212121" fill-opacity="1" stroke="none" xml:space="preserve" x="0" y="0" font-family="Helvetica" font-size="28" font-weight="400" font-style="normal" 
 >KS</text>
</g>

<g fill="#212121" fill-opacity="1" stroke="#212121" stroke-opacity="1" stroke-width="1" stroke-linecap="square" stroke-linejoin="bevel" transform="matrix(0.375,0,0,0.375,568.05,254.812)"
font-family="Helvetica" font-size="35" font-weight="400" font-style="normal" 
>
<text fill="#212121" fill-opacity="1" stroke="none" xml:space="preserve" x="0" y="0" font-family="Helvetica" font-size="35" font-weight="400" font-style="normal" 
 > (bit/s)</text>
</g>

<g fill="#212121" fill-opacity="1" stroke="#212121" stroke-opacity="1" stroke-width="1.33333" stroke-linecap="square" stroke-linejoin="round" transform="matrix(0.375,0,0,0.375,-60.45,-2.81251)"
font-family="Helvetica" font-size="35" font-weight="400" font-style="normal" 
>
<polyline fill="none" vector-effect="none" points="1470,598 1924,598 " />
<polyline fill="none" vector-effect="none" points="1490.64,598 1490.64,592.52 " />
<polyline fill="none" vector-effect="none" points="1689.06,598 1689.06,592.52 " />
<polyline fill="none" vector-effect="none" points="1887.49,598 1887.49,592.52 " />
</g>

<g fill="#212121" fill-opacity="1" stroke="#212121" stroke-opacity="1" stroke-width="1" stroke-linecap="square" stroke-linejoin="bevel" transform="matrix(0.375,0,0,0.375,494.601,238.987)"
font-family="Helvetica" font-size="37" font-weight="400" font-style="normal" 
>
<text fill="#212121" fill-opacity="1" stroke="none" xml:space="preserve" x="0" y="0" font-family="Helvetica" font-size="37" font-weight="400" font-style="normal" 
 >0</text>
</g>

<g fill="#212121" fill-opacity="1" stroke="#212121" stroke-opacity="1" stroke-width="1" stroke-linecap="square" stroke-linejoin="bevel" transform="matrix(0.375,0,0,0.375,565.074,238.987)"
font-family="Helvetica" font-size="37" font-weight="400" font-style="normal" 
>
<text fill="#212121" fill-opacity="1" stroke="none" xml:space="preserve" x="0" y="0" font-family="Helvetica" font-size="37" font-weight="400" font-style="normal" 
 >20</text>
</g>

<g fill="#212121" fill-opacity="1" stroke="#212121" stroke-opacity="1" stroke-width="1" stroke-linecap="square" stroke-linejoin="bevel" transform="matrix(0.375,0,0,0.375,639.484,238.987)"
font-family="Helvetica" font-size="37" font-weight="400" font-style="normal" 
>
<text fill="#212121" fill-opacity="1" stroke="none" xml:space="preserve" x="0" y="0" font-family="Helvetica" font-size="37" font-weight="400" font-style="normal" 
 >40</text>
</g>

<g fill="#212121" fill-opacity="1" stroke="#212121" stroke-opacity="1" stroke-width="1.33333" stroke-linecap="square" stroke-linejoin="round" transform="matrix(0.375,0,0,0.375,-60.45,-2.81251)"
font-family="Helvetica" font-size="37" font-weight="400" font-style="normal" 
>
<polyline fill="none" vector-effect="none" points="1470,598 1470,50 " />
<polyline fill="none" vector-effect="none" points="1470,598 1475.48,598 " />
<polyline fill="none" vector-effect="none" points="1470,476.222 1475.48,476.222 " />
<polyline fill="none" vector-effect="none" points="1470,354.444 1475.48,354.444 " />
<polyline fill="none" vector-effect="none" points="1470,232.667 1475.48,232.667 " />
<polyline fill="none" vector-effect="none" points="1470,110.889 1475.48,110.889 " />
</g>

<g fill="#212121" fill-opacity="1" stroke="#212121" stroke-opacity="1" stroke-width="1" stroke-linecap="square" stroke-linejoin="bevel" transform="matrix(0.375,0,0,0.375,478.125,226.312)"
font-family="Helvetica" font-size="37" font-weight="400" font-style="normal" 
>
<text fill="#212121" fill-opacity="1" stroke="none" xml:space="preserve" x="0" y="0" font-family="Helvetica" font-size="37" font-weight="400" font-style="normal" 
 >0</text>
</g>

<g fill="#212121" fill-opacity="1" stroke="#212121" stroke-opacity="1" stroke-width="1" stroke-linecap="square" stroke-linejoin="bevel" transform="matrix(0.375,0,0,0.375,466.5,180.646)"
font-family="Helvetica" font-size="37" font-weight="400" font-style="normal" 
>
<text fill="#212121" fill-opacity="1" stroke="none" xml:space="preserve" x="0" y="0" font-family="Helvetica" font-size="37" font-weight="400" font-style="normal" 
 >0.2</text>
</g>

<g fill="#212121" fill-opacity="1" stroke="#212121" stroke-opacity="1" stroke-width="1" stroke-linecap="square" stroke-linejoin="bevel" transform="matrix(0.375,0,0,0.375,466.5,134.979)"
font-family="Helvetica" font-size="37" font-weight="400" font-style="normal" 
>
<text fill="#212121" fill-opacity="1" stroke="none" xml:space="preserve" x="0" y="0" font-family="Helvetica" font-size="37" font-weight="400" font-style="normal" 
 >0.4</text>
</g>

<g fill="#212121" fill-opacity="1" stroke="#212121" stroke-opacity="1" stroke-width="1" stroke-linecap="square" stroke-linejoin="bevel" transform="matrix(0.375,0,0,0.375,466.5,89.3125)"
font-family="Helvetica" font-size="37" font-weight="400" font-style="normal" 
>
<text fill="#212121" fill-opacity="1" stroke="none" xml:space="preserve" x="0" y="0" font-family="Helvetica" font-size="37" font-weight="400" font-style="normal" 
 >0.6</text>
</g>

<g fill="#212121" fill-opacity="1" stroke="#212121" stroke-opacity="1" stroke-width="1" stroke-linecap="square" stroke-linejoin="bevel" transform="matrix(0.375,0,0,0.375,466.5,43.6458)"
font-family="Helvetica" font-size="37" font-weight="400" font-style="normal" 
>
<text fill="#212121" fill-opacity="1" stroke="none" xml:space="preserve" x="0" y="0" font-family="Helvetica" font-size="37" font-weight="400" font-style="normal" 
 >0.8</text>
</g>

<g fill="#999999" fill-opacity="1" stroke="#999999" stroke-opacity="1" stroke-width="4" stroke-linecap="butt" stroke-linejoin="round" transform="matrix(0.375,0,0,0.375,-60.45,-2.81251)"
font-family="Helvetica" font-size="37" font-weight="400" font-style="normal" 
>
<polyline fill="none" vector-effect="none" points="786.836,598.08 786.836,50.4 " />
<polyline fill="none" vector-effect="none" points="1383.81,598.08 1383.81,50.4 " />
</g>
</g>
</svg>
